<svg width="21" height="22" viewBox="0 0 21 22" fill="none" xmlns="http://www.w3.org/2000/svg">
<path fill-rule="evenodd" clip-rule="evenodd" d="M10.4391 0.101562C4.71404 0.101562 0.0732422 4.80621 0.0732422 10.61C0.0732422 16.4139 4.71404 21.1185 10.4391 21.1185C16.1631 21.1185 20.805 16.4139 20.805 10.61C20.805 4.80621 16.1631 0.101562 10.4391 0.101562ZM11.4757 14.8134C11.4757 15.3935 11.0113 15.8643 10.4391 15.8643C9.8669 15.8643 9.40251 15.3935 9.40251 14.8134V9.55919C9.40251 8.97912 9.8669 8.50834 10.4391 8.50834C11.0113 8.50834 11.4757 8.97912 11.4757 9.55919V14.8134ZM10.4391 7.45749C9.8669 7.45749 9.40251 6.98671 9.40251 6.40665C9.40251 5.82658 9.8669 5.3558 10.4391 5.3558C11.0113 5.3558 11.4757 5.82658 11.4757 6.40665C11.4757 6.98671 11.0113 7.45749 10.4391 7.45749Z" fill="#007EFF"/>
</svg>
