<svg xmlns="http://www.w3.org/2000/svg" xmlns:xlink="http://www.w3.org/1999/xlink" width="160" height="48" viewBox="0 0 160 48">
    <defs>
        <path id="msykdosk9a" d="M0 38L159.1 38 159.1 0.834 0 0.834z"/>
    </defs>
    <g fill="none" fill-rule="evenodd">
        <g>
            <g>
                <g>
                    <g>
                        <path fill="#A0A3B5" d="M66.252 32L64 38h.687l.484-1.36h2.624l.484 1.36H69l-2.252-6h-.496zm.248.922l1.126 3.168h-2.253l1.127-3.168z" transform="translate(-64 -24) translate(64 24) translate(0 4)"/>
                        <g transform="translate(-64 -24) translate(64 24) translate(0 4)">
                            <path fill="#A0A3B5" d="M70.856 32.542h1.51v.011c.652 0 1.179.531 1.179 1.185s-.527 1.185-1.179 1.185h-1.51v-2.38zm0 2.94h1.566l.022.01c.964 0 1.745-.785 1.745-1.754 0-.97-.781-1.755-1.745-1.755h-2.222v5.957h.634v-2.458zM76.69 32.913c.57-.565 1.484-.565 2.055 0v.021c.366.381.41.761.41 2.012 0 1.252-.044 1.643-.41 2.035-.272.276-.642.431-1.028.431s-.756-.155-1.028-.431c-.41-.392-.41-.783-.41-2.035 0-1.251.044-1.643.41-2.033m-1.044 2.055c0 1.296 0 1.845.555 2.415.854.802 2.18.802 3.034 0 .566-.57.566-1.119.566-2.415s0-1.855-.566-2.413c-.854-.802-2.18-.802-3.034 0-.555.558-.555 1.117-.555 2.413M83.211 35.482L83.211 37.94 82.578 37.94 82.578 35.482 80.822 31.972 81.501 31.972 82.9 34.834 84.288 31.972 84.967 31.972zM86.545 36.052l1.11-3.152 1.112 3.152h-2.222zm2.345.547l.521 1.353h.767l-2.222-5.97h-.534l-2.223 5.97h.68l.465-1.353h2.546zM95.233 37.952L92.088 33.168 92.088 37.952 91.456 37.952 91.456 31.983 92.056 31.983 95.211 36.745 95.211 31.983 95.845 31.983 95.845 37.952zM99.933 32.551c.415-.01.815.147 1.112.437.333.576.45 1.254.332 1.91.101.707-.037 1.427-.387 2.046-.3.289-.7.446-1.113.436h-1.299V32.55h1.355zm.056 5.399c.554.021 1.094-.18 1.5-.56.507-.723.72-1.614.6-2.492.124-.833-.087-1.682-.59-2.358-.405-.38-.944-.58-1.5-.559h-2.044v5.969h2.034zM105.822 32.486c.383-.002.751.151 1.021.425l-.01.022c.378.38.422.76.422 2.012s-.044 1.642-.412 2.034c-.27.275-.638.428-1.021.425-.384.002-.752-.151-1.024-.425-.41-.392-.41-.782-.41-2.034 0-1.252.045-1.643.41-2.034.273-.273.64-.426 1.024-.425m-1.522 4.896c.854.803 2.179.803 3.033 0 .556-.57.556-1.117.556-2.413 0-1.297 0-1.855-.556-2.414-.854-.802-2.18-.802-3.033 0-.555.559-.555 1.117-.555 2.414 0 1.296 0 1.843.555 2.413M116.045 37.952L112.9 33.168 112.9 37.952 112.222 37.952 112.222 31.983 112.822 31.983 115.968 36.745 115.968 31.983 116.667 31.983 116.667 37.952zM118.766 37.952L118.766 31.983 122.444 31.983 122.444 32.553 119.399 32.553 119.399 34.655 122 34.655 122 35.225 119.399 35.225 119.399 37.382 122.444 37.382 122.444 37.952zM127.6 37.314c-.845.865-2.22.894-3.1.067-.556-.57-.556-1.117-.556-2.413 0-1.297 0-1.855.556-2.414.401-.402.947-.623 1.511-.616 1.046-.037 1.946.733 2.077 1.778h-.632c-.113-.71-.73-1.227-1.445-1.207-.383-.001-.751.153-1.022.425-.378.39-.412.782-.412 2.034 0 1.251 0 1.653.422 2.044.291.285.688.438 1.093.42.405-.016.786-.2 1.052-.508.257-.313.382-.715.345-1.118v-.459h-1.455v-.558h2.088v.95c.055.576-.136 1.148-.522 1.575M130.8 32.91c.567-.562 1.478-.562 2.044 0l.023.023c.367.38.4.76.4 2.012s-.045 1.643-.423 2.035c-.27.272-.639.425-1.021.425-.384 0-.752-.153-1.023-.425-.411-.392-.411-.783-.411-2.035 0-1.252.045-1.644.411-2.034m1.023 5.086c.565.01 1.112-.21 1.51-.615.568-.56.567-1.097.567-2.342v-.073c0-1.296 0-1.855-.567-2.414-.398-.404-.945-.626-1.51-.615-.57-.009-1.118.214-1.524.615-.554.56-.554 1.118-.554 2.414s0 1.845.554 2.415c.406.402.954.624 1.524.615M137.656 37.996c-.565.01-1.111-.213-1.511-.614-.557-.57-.557-1.118-.557-2.414 0-1.297 0-1.856.557-2.415.4-.402.946-.624 1.511-.615 1.04-.036 1.935.738 2.055 1.777h-.644c-.102-.701-.706-1.22-1.41-1.207-.383-.004-.75.145-1.024.414-.377.38-.41.793-.41 2.046 0 1.251 0 1.654.41 2.044.271.273.64.426 1.023.425.705.01 1.311-.505 1.422-1.206h.633c-.126 1.035-1.02 1.802-2.055 1.765"/>
                            <mask id="705hjcgvsb" fill="#fff">
                                <use xlink:href="#msykdosk9a"/>
                            </mask>
                            <path fill="#A0A3B5" d="M141.522 37.952L142.155 37.952 142.155 31.983 141.522 31.983zM146.11 32.486c.388-.002.76.15 1.034.425v.023c.378.38.422.76.422 2.01 0 1.254-.044 1.644-.422 2.035-.274.276-.646.429-1.033.425-.38.002-.743-.151-1.011-.425-.423-.39-.423-.781-.423-2.034 0-1.251.046-1.642.423-2.034.268-.272.63-.425 1.01-.425m.012 5.51c.567.011 1.112-.211 1.51-.615.567-.57.567-1.117.567-2.413 0-1.297 0-1.855-.566-2.414-.4-.404-.944-.626-1.51-.615-.567-.008-1.111.213-1.512.615-.555.559-.555 1.117-.555 2.414 0 1.296 0 1.843.555 2.413.4.402.945.623 1.511.615M151.623 37.995c-.76.048-1.505-.242-2.033-.793l.434-.437c.414.455 1.01.698 1.62.66.868 0 1.39-.413 1.39-1.117.018-.28-.083-.551-.277-.75-.223-.175-.496-.272-.779-.279l-.689-.111c-.405-.04-.79-.196-1.111-.447-.309-.287-.475-.696-.455-1.119-.002-.487.207-.95.57-1.271.365-.323.85-.47 1.33-.406.65-.032 1.282.203 1.755.65l-.41.412c-.369-.355-.868-.541-1.378-.513-.8 0-1.244.435-1.244 1.117-.02.257.08.507.266.683.235.173.51.285.8.324l.644.1c.406.017.796.166 1.112.425.334.293.52.726.5 1.173 0 1.05-.822 1.699-2.045 1.699" mask="url(#705hjcgvsb)"/>
                            <path fill="#00AEF0" d="M2 10.402c1.105 0 2-.91 2-2.033 0-1.125-.895-2.035-2-2.035-1.104 0-2 .91-2 2.035 0 1.122.896 2.033 2 2.033" mask="url(#705hjcgvsb)"/>
                            <path fill="#7F4098" d="M157.1 26.304c1.105 0 2-.91 2-2.034 0-1.123-.895-2.034-2-2.034s-2 .911-2 2.034c0 1.123.895 2.034 2 2.034" mask="url(#705hjcgvsb)"/>
                            <path fill="#D5006C" d="M62.222 14.011c.072-2.057-.737-4.047-2.222-5.465l-.1-.09c-1.49-1.22-3.367-1.862-5.288-1.81h-.523c-1.913-.056-3.784.574-5.278 1.778l-.133.11c-1.475 1.411-2.283 3.387-2.222 5.433v11.669c.002.157.07.307.189.413.118.116.278.18.444.178h2.056c.166 0 .325-.063.444-.178.114-.107.178-.257.177-.413V14.38c-.093-1.313.339-2.608 1.2-3.599.928-.836 2.146-1.27 3.39-1.207 1.255-.077 2.489.359 3.422 1.207.828 1.006 1.227 2.299 1.111 3.599v11.256c.002.155.067.304.178.413.12.115.28.178.444.178h2.068c.16-.003.316-.066.432-.178.119-.106.187-.256.19-.413l.021-11.625zM134.1 14.011c.07-2.057-.74-4.046-2.223-5.465l-.1-.09c-1.494-1.203-3.365-1.833-5.277-1.776h-.533c-1.91-.057-3.777.573-5.267 1.777l-.123.112c-1.476 1.409-2.285 3.385-2.221 5.432v11.635c-.003.156.061.307.177.413.12.116.278.18.445.178h2.055c.166 0 .325-.063.444-.178.116-.106.18-.257.178-.413V14.38c-.095-1.307.334-2.599 1.19-3.587 1.972-1.607 4.792-1.607 6.766 0 .85.992 1.277 2.281 1.189 3.587v11.256c0 .155.066.305.177.413.12.114.28.177.445.178h2.067c.161-.004.315-.067.433-.178.115-.107.18-.257.178-.413V14.01zM94.656 21.444c.683-1.561.991-3.26.9-4.963.098-1.598-.211-3.195-.9-4.639-.789-1.444-2.358-2.275-3.989-2.111h-.089c-1.63-.164-3.2.667-3.989 2.111-.686 1.438-.996 3.027-.901 4.618-.094 1.705.215 3.41.901 4.972.79 1.445 2.358 2.28 3.99 2.124h.12c1.618.142 3.169-.684 3.957-2.112zm-3.723-14.55c1.9-.075 3.762.553 5.233 1.765 2.145 2.057 2.667 4.907 2.667 7.87 0 2.96-.467 6.156-2.688 8.247-1.47 1.21-3.326 1.838-5.222 1.766h-.134c-1.915.075-3.77-.683-5.089-2.079v1.218c0 .157-.064.306-.178.413-.118.113-.272.177-.434.18h-2.032c-.166 0-.325-.064-.445-.18-.113-.107-.178-.256-.178-.413V1.495c0-.156.065-.306.178-.413.119-.117.279-.182.445-.18h2.066c.162.001.317.066.434.18.109.109.168.259.166.413V8.593c1.428-1.182 3.242-1.787 5.09-1.7h.121zM40 21.971c.636-.799.912-1.827.767-2.84v-1.53h-5.078c-1.073-.057-2.138.223-3.044.804-.618.499-.952 1.272-.89 2.067-.075.774.253 1.531.868 2.002.981.56 2.108.81 3.233.715 1.488.164 2.98-.275 4.144-1.218m2.156-13.637c1.37 1.201 2.115 2.969 2.022 4.795h-.01v5.98c.15 1.908-.421 3.805-1.6 5.308-1.156 1.252-2.945 1.867-5.446 1.867h-1.4c-2.722 0-4.522-.493-5.878-1.833-1.01-1.055-1.57-2.468-1.554-3.935v-.067c-.049-1.665.694-3.254 1.999-4.28 1.52-1.065 3.35-1.592 5.2-1.498h5.278v-1.285c.091-.995-.263-1.978-.967-2.682-1.028-.717-2.276-1.045-3.522-.928h-.056c-.933-.047-1.865.093-2.744.413-.48.216-.907.532-1.256.928l-.711.692c-.098.122-.244.195-.4.202-.137.009-.273-.026-.389-.1l-.966-.84-.356-.3c-.045-.036-.087-.077-.122-.124l-.09-.078c-.126-.106-.206-.26-.22-.425-.025-.158.024-.318.132-.435l.156-.202.355-.425.089-.11c1.623-1.733 3.744-2.314 6.423-2.314h.122c2.103-.148 4.193.445 5.91 1.676M104.445 18.337c-.618.517-.94 1.31-.857 2.112-.083.775.242 1.538.857 2.012 1.009.584 2.174.837 3.333.726 1.457.145 2.911-.287 4.056-1.206.64-.79.934-1.807.811-2.817v-1.576h-5.089c-1.09-.09-2.18.173-3.111.749m9.6-10.003c1.371 1.2 2.115 2.969 2.022 4.795h.055v5.945c.154 1.912-.421 3.81-1.612 5.31-1.155 1.252-2.933 1.866-5.432 1.866h-1.411c-2.722 0-4.533-.48-5.878-1.823-1.012-1.055-1.57-2.468-1.555-3.933v-.067c-.049-1.664.689-3.25 1.988-4.28 1.51-1.054 3.321-1.576 5.156-1.487h5.222v-1.219c-.002-.018-.002-.037 0-.055.094-.993-.258-1.976-.955-2.682-1.03-.715-2.278-1.043-3.523-.928-.957-.031-1.91.136-2.8.491-.484.214-.915.531-1.266.928l-.61.738c-.102.119-.246.192-.4.2-.16.007-.315-.05-.435-.155l-.966-.839-.367-.302c-.046-.034-.087-.076-.122-.123l-.089-.078c-.122-.11-.201-.26-.222-.425-.02-.157.028-.316.132-.435l.135-.257.387-.437.09-.11c1.623-1.733 3.744-2.314 6.422-2.314h.122c2.104-.147 4.194.446 5.912 1.676M12.411 6.724H8.89V1.45c.009-.156-.044-.309-.15-.425-.103-.116-.25-.184-.405-.19h-2.1c-.165.016-.317.096-.422.224-.111.1-.176.242-.179.391v19.815c-.046 1.279.394 2.527 1.234 3.488.961.973 2.281 1.5 3.644 1.454h1.89c.154-.003.302-.069.41-.18.108-.123.168-.282.167-.447V23.5c0-.163-.059-.322-.167-.446-.104-.118-.253-.187-.41-.19h-1.612c-.267-.001-.533-.042-.789-.122-.114-.037-.222-.09-.321-.157-.09-.055-.171-.118-.245-.19-.386-.452-.58-1.038-.545-1.632V10.033h3.478c.155-.004.302-.068.411-.18.108-.123.168-.282.167-.446V7.35c0-.165-.06-.324-.167-.447-.096-.103-.227-.167-.367-.18M27.433 9.151l-.189-.212c.005-.023.005-.045 0-.068l-.122-.122-.155-.168-.133-.145c-1.096-1.172-2.635-1.822-4.234-1.788h-.122c-1.232.006-2.403.538-3.222 1.463l-.545.65V7.306c.003-.157-.062-.307-.177-.414-.117-.113-.272-.177-.434-.178h-2.089c-.161.001-.317.065-.433.178-.114.107-.179.257-.178.414v18.341c0 .157.064.306.178.413.116.113.272.177.433.18h2.033c.162-.002.318-.065.434-.18.116-.106.18-.256.177-.413V13.555c.023-.96.342-1.89.911-2.66.612-.742 1.532-1.155 2.49-1.117.434-.022.868.042 1.278.189.42.205.797.49 1.11.839l.1.1.445.492c.109.118.261.187.422.189.166.003.326-.061.444-.178l1.522-1.386c.125-.113.2-.269.212-.436.013-.161-.043-.32-.156-.436M78.589 16.202c-1.3-.791-2.782-1.226-4.3-1.263l-3.033-.257c-.885-.003-1.75-.255-2.5-.727-.44-.371-.676-.932-.633-1.508-.035-.758.317-1.482.933-1.923.928-.564 2.005-.83 3.088-.76 1.63-.045 3.236.39 4.622 1.252l.768.548c.125.089.282.12.432.09.156-.04.29-.136.378-.27l1.112-1.653c.09-.134.13-.297.11-.459-.013-.083-.044-.162-.088-.235-.049-.081-.113-.154-.19-.211l-.11-.169c-2.088-1.382-4.546-2.088-7.045-2.022-1.91-.084-3.796.453-5.377 1.531-1.34.97-2.131 2.532-2.123 4.191-.046 1.44.568 2.82 1.667 3.745 1.368.991 3.003 1.541 4.689 1.575l3.111.257c.794.02 1.565.268 2.222.716.43.386.653.953.6 1.531.049.845-.381 1.645-1.11 2.068-1.153.594-2.442.865-3.734.782-1.851.115-3.682-.444-5.155-1.575l-.667-.56c-.123-.098-.279-.143-.434-.123-.158.024-.304.103-.41.224l-1.301 1.587c-.106.128-.158.292-.145.459.005.16.078.31.2.412l.623.525.088.068c2.127 1.455 4.664 2.18 7.234 2.068 2.09.09 4.157-.455 5.933-1.566 1.468-.977 2.35-2.632 2.345-4.403v-.089c.05-1.501-.618-2.936-1.8-3.856M153.333 25.423l-2.545-3.61-5.088-7.477 3.956-4.225 2.3-2.448.144-.156c.092-.085.144-.205.144-.33 0-.125-.052-.245-.144-.33-.12-.114-.28-.178-.444-.178h-2.633c-.18.021-.346.1-.478.223l-8.89 9.534v-15c.002-.156-.063-.306-.177-.413-.116-.114-.271-.178-.433-.179h-2.034c-.162.001-.317.065-.434.18-.117.104-.187.254-.189.413V25.636c.004.157.073.306.19.413.117.112.271.175.433.178h2.034c.16-.003.316-.066.433-.178.115-.107.18-.257.178-.414v-4.884l3.844-4.192 2.6 3.902 3.645 5.476c.1.195.302.317.522.313h2.644c.166 0 .324-.066.444-.179.152-.193.142-.466-.022-.648" mask="url(#705hjcgvsb)"/>
                            <path fill="#FFF" d="M130.612 1.135L130.968 1.135 131.501 2.712 132.035 1.135 132.389 1.135 132.389 3.002 132.157 3.002 132.157 1.951 132.157 1.762 132.157 1.481 131.623 3.057 131.378 3.057 130.845 1.425 130.845 1.694 130.845 1.907 130.845 3.023 130.612 3.023zM134.556 1.953c-.087.04-.182.051-.277.034l-.568-.034v-.525h.6c.066-.014.136-.014.2 0 .1.05.158.158.145.268.008.097-.029.192-.1.257m-.257-.817h-.844l-.043 1.912h.254v-.805h.556c.074-.016.15-.016.223 0 .087.05.138.145.132.245v.257c-.003.05-.003.098 0 .146v.056h.312c-.045-.02-.079-.062-.088-.112-.006-.052-.006-.104 0-.157v-.245c.02-.077.02-.158 0-.235-.047-.052-.104-.09-.168-.112.08-.037.15-.095.2-.168.051-.084.074-.181.067-.28.015-.185-.086-.359-.255-.435-.11-.049-.227-.071-.346-.067M132.933 3.004c-.034 0-.067-.014-.09-.04-.024-.025-.035-.06-.032-.094-.003-.036.01-.072.035-.099.027-.026.062-.039.099-.035.034 0 .067.014.09.04.023.026.035.06.032.094.003.037-.01.073-.036.098-.026.026-.061.04-.098.036M135.467 3.003c-.077 0-.139-.062-.139-.14 0-.077.062-.14.139-.14.036-.004.072.01.1.036.023.026.038.062.033.099.005.036-.01.072-.034.098-.027.026-.063.04-.1.035v.012z" mask="url(#705hjcgvsb)"/>
                        </g>
                    </g>
                </g>
            </g>
        </g>
    </g>
</svg>
