<svg width="24" height="25" viewBox="0 0 24 25" fill="none" xmlns="http://www.w3.org/2000/svg">
<path fill-rule="evenodd" clip-rule="evenodd" d="M11.9994 4.12802C15.6474 4.12802 19.1004 5.52302 21.7244 8.05702C22.1214 8.44002 22.1324 9.07402 21.7494 9.47102C21.5534 9.67402 21.2914 9.77602 21.0304 9.77602C20.7804 9.77602 20.5294 9.68302 20.3354 9.49502C18.0854 7.32402 15.1254 6.12802 11.9994 6.12802C8.87338 6.12802 5.91338 7.32402 3.66338 9.49502C3.26838 9.88002 2.63438 9.86902 2.24938 9.47102C1.86738 9.07402 1.87738 8.44002 2.27538 8.05702C4.89938 5.52302 8.35238 4.12802 11.9994 4.12802ZM11.9998 9.12782C9.57178 9.12782 7.21178 10.1288 5.52478 11.8758C5.14278 12.2738 5.15278 12.9068 5.55078 13.2898C5.94678 13.6738 6.58178 13.6628 6.96478 13.2658C8.27578 11.9068 10.1108 11.1278 11.9998 11.1278C13.8888 11.1278 15.7238 11.9068 17.0348 13.2658C17.2308 13.4688 17.4928 13.5708 17.7548 13.5708C18.0048 13.5708 18.2558 13.4778 18.4488 13.2898C18.8468 12.9068 18.8568 12.2738 18.4748 11.8758C16.7878 10.1288 14.4278 9.12782 11.9998 9.12782ZM8.52678 15.5308C9.46378 14.6268 10.6968 14.1278 11.9998 14.1278C13.3028 14.1278 14.5358 14.6268 15.4728 15.5308C15.8698 15.9148 15.8808 16.5478 15.4978 16.9448C15.3018 17.1488 15.0398 17.2508 14.7778 17.2508C14.5278 17.2508 14.2768 17.1568 14.0838 16.9698C12.9588 15.8838 11.0408 15.8838 9.91578 16.9698C9.52078 17.3538 8.88678 17.3428 8.50178 16.9448C8.11878 16.5478 8.12978 15.9148 8.52678 15.5308ZM10.9998 19.1278C10.9998 18.5758 11.4468 18.1278 11.9998 18.1278C12.5528 18.1278 12.9998 18.5758 12.9998 19.1278C12.9998 19.6798 12.5528 20.1278 11.9998 20.1278C11.4468 20.1278 10.9998 19.6798 10.9998 19.1278Z" fill="#828EA5"/>
</svg>
